mtllib materials.mtl
v 0.1486099 -0.04416066 -0.04136279
v 0.1515871 -0.03899544 0.03776197
v 0.1535326 0.04080623 0.03247941
v 0.1505554 0.03564101 -0.04664536
v -0.02068102 -0.03963143 -0.0352885
v -0.01873553 0.04017025 -0.04057106
v -0.01575828 0.04533547 0.0385537
v -0.01770377 -0.03446621 0.04383627
v -0.2110991 0.0006293058 0.003332451
v -0.01109904 -0.08597326 0.05333243
v -0.01109904 -0.09937072 0.003332436
v -0.01109904 -0.04937071 0.08993498
v -0.01109904 0.0006293058 0.1033324
v -0.01109904 0.05062932 0.08993499
v -0.01109904 0.08723187 0.05333247
v -0.01109904 0.1006293 0.003332466
v -0.01109904 0.08723187 -0.04666755
v -0.01109904 0.05062932 -0.08327009
v -0.01109904 0.0006293058 -0.09666754
v -0.01109904 -0.04937065 -0.08327009
v -0.01109904 -0.08597326 -0.04666753
vn 0.9989999 -0.02672748 -0.03584473
vn -0.9989999 0.02672761 0.03584474
vn -0.02431861 -0.9975211 0.06603232
vn 0.02431858 0.9975211 -0.0660324
vn -0.03752093 -0.06509433 -0.9971735
vn 0.03752095 0.0650944 0.9971735
vn -0.4348981 -0.8697966 0.2330612
vn -0.4348982 -0.6367355 0.6367351
vn -0.4348983 -0.2330614 0.8697965
vn -0.4348983 0.2330612 0.8697965
vn -0.4348983 0.6367351 0.6367354
vn -0.4348984 0.8697965 0.2330614
vn -0.4348983 0.8697965 -0.2330612
vn -0.4348983 0.6367352 -0.6367352
vn -0.4348983 0.2330614 -0.8697965
vn -0.4348983 -0.2330612 -0.8697966
vn -0.4348982 -0.6367352 -0.6367353
vn -0.4348982 -0.8697966 -0.2330612
vn 1 1.192093E-07 -7.018271E-08
vt 0.0256226 0.08212925
vt 0.03265307 0.07845025
vt 0.03636226 0.0855384
vt 0.02933178 0.08921741
vt -0.02562258 0.08212925
vt -0.02933177 0.0892174
vt -0.03636225 0.08553839
vt -0.03265306 0.07845024
vt -0.02595132 -0.03474743
vt -0.03061878 -0.05103801
vt -0.02299079 -0.05322353
vt -0.01832333 -0.03693295
vt 0.02595131 -0.03474743
vt 0.01832332 -0.03693295
vt 0.02299078 -0.05322353
vt 0.03061877 -0.05103801
vt -0.09372216 0.005082998
vt -0.1007392 0.008924967
vt -0.1088775 -0.005938978
vt -0.1018604 -0.009780946
vt 0.09372216 0.005082997
vt 0.1018604 -0.009780949
vt 0.1088775 -0.005938981
vt 0.1007392 0.008924965
vt -0.02543595 -0.1038848
vt -0.01599022 -0.08361711
vt -0.02090364 -0.08198823
vt 0.06726921 -0.09009264
vt 0.06634624 -0.06775101
vt 0.06123375 -0.06856188
vt 0.1126563 -0.0328359
vt 0.1040219 -0.01220951
vt 0.09951044 -0.01474757
vt 0.1102081 0.0002162879
vt 0.09941815 0.01980142
vt 0.09520388 0.0167956
vt 0.08607598 0.002032819
vt 0.07625818 0.02212289
vt 0.07190176 0.01932709
vt 0.04720579 -0.01390185
vt 0.04057232 0.007452239
vt 0.03583992 0.005354766
vt -0.00315955 -0.02954743
vt -0.004705144 -0.007240227
vt -0.009793023 -0.008193338
vt -0.05520373 -0.03089709
vt -0.05070508 -0.008993613
vt -0.05586208 -0.008546098
vt -0.09444974 -0.02098536
vt -0.08461871 -0.0009017557
vt -0.08950013 0.0008206429
vt -0.1134558 -0.01666366
vt -0.1000905 0.001263112
vt -0.1045707 0.003855965
vt -0.112185 -0.03122892
vt -0.09724313 -0.01459339
vt -0.1014687 -0.01160342
vt -0.08768933 -0.0661514
vt -0.0734237 -0.04893245
vt -0.07776524 -0.04611361
vt 0.03371182 0.07300353
vt 0.03855919 0.07118753
vt 0.04366515 0.07203852
vt 0.04766154 0.07532848
vt 0.04947753 0.08017586
vt 0.04862655 0.08528181
vt 0.04533659 0.0892782
vt 0.04048921 0.0910942
vt 0.03538325 0.09024321
vt 0.03138687 0.08695325
vt 0.02957087 0.08210587
vt 0.03042186 0.07699992
o group1902505079
g mesh1902505079
usemtl mat10
f 4/4/1 3/3/1 2/2/1 1/1/1
f 8/8/2 7/7/2 6/6/2 5/5/2
f 2/12/3 8/11/3 5/10/3 1/9/3
f 6/16/4 7/15/4 3/14/4 4/13/4
f 5/20/5 6/19/5 4/18/5 1/17/5
f 3/24/6 7/23/6 8/22/6 2/21/6
o group546483871
g mesh546483871
usemtl mat10
f 11/27/7 10/26/7 9/25/7
f 10/30/8 12/29/8 9/28/8
f 12/33/9 13/32/9 9/31/9
f 13/36/10 14/35/10 9/34/10
f 14/39/11 15/38/11 9/37/11
f 15/42/12 16/41/12 9/40/12
f 16/45/13 17/44/13 9/43/13
f 17/48/14 18/47/14 9/46/14
f 18/51/15 19/50/15 9/49/15
f 19/54/16 20/53/16 9/52/16
f 20/57/17 21/56/17 9/55/17
f 21/60/18 11/59/18 9/58/18
f 21/72/19 20/71/19 19/70/19 18/69/19 17/68/19 16/67/19 15/66/19 14/65/19 13/64/19 12/63/19 10/62/19 11/61/19
